<svg width="40" height="44" viewBox="0 0 40 44" fill="none" xmlns="http://www.w3.org/2000/svg">
<path d="M6.25 35.4167L16.6667 25L20.5833 28.9167C19.4375 30.8125 18.75 33.0417 18.75 35.4167H6.25ZM12.5 17.7083C12.5 15.9792 11.1042 14.5833 9.375 14.5833C7.64583 14.5833 6.25 15.9792 6.25 17.7083C6.25 19.4375 7.64583 20.8333 9.375 20.8333C11.1042 20.8333 12.5 19.4375 12.5 17.7083ZM18.9375 37.5H4.16667V4.16667H18.75V14.5833H29.1667V23.1042C29.8542 23 30.5417 22.9167 31.25 22.9167C31.9583 22.9167 32.6458 23 33.3333 23.1042V12.5L20.8333 0H4.16667C3.0616 0 2.00179 0.438987 1.22039 1.22039C0.438987 2.00179 0 3.0616 0 4.16667V37.5C0 39.8125 1.85417 41.6667 4.16667 41.6667H20.4375C19.7083 40.3958 19.1875 39 18.9375 37.5ZM29.1667 27.0833V33.3333H22.9167V37.5H29.1667V43.75H33.3333V37.5H39.5833V33.3333H33.3333V27.0833H29.1667Z" fill="#9747FF"/>
</svg>
