<svg width="28" height="30" viewBox="0 0 28 30" fill="none" xmlns="http://www.w3.org/2000/svg">
<g clip-path="url(#clip0_1_90)">
<path d="M25.6666 25H26.8333V26.25H25.6666V25ZM25.6666 23.75H26.8333V22.5H25.6666V23.75ZM25.6666 21.25H26.8333V20H25.6666V21.25ZM25.6666 18.75H26.8333V17.5H25.6666V18.75ZM25.6666 16.25H26.8333V15H25.6666V16.25ZM26.8333 12.5H25.6666V13.75H26.8333V12.5ZM2.33331 26.25H3.49998V25H2.33331V26.25ZM2.33331 23.75H3.49998V22.5H2.33331V23.75ZM2.33331 21.25H3.49998V20H2.33331V21.25ZM2.33331 18.75H3.49998V17.5H2.33331V18.75ZM2.33331 16.25H3.49998V15H2.33331V16.25ZM3.49998 12.5H2.33331V13.75H3.49998V12.5ZM21 18.75H22.1666V17.5H21V18.75ZM21 16.25H22.1666V15H21V16.25ZM22.1666 12.5H21V13.75H22.1666V12.5ZM6.99998 18.75H8.16665V17.5H6.99998V18.75ZM6.99998 16.25H8.16665V15H6.99998V16.25ZM8.16665 12.5H6.99998V13.75H8.16665V12.5ZM21.875 20L27.125 30H2.33331L7.58331 20H21.875ZM8.26581 21.25L7.61015 22.5H12.3643L17.2491 25H23.1618L21.1925 21.25H8.26581ZM25.13 28.75L23.8175 26.25H16.9843L12.0995 23.75H6.99998V23.6612L4.32831 28.75H25.13ZM21.875 1.25L27.125 11.25H2.33331L7.58331 1.25H21.875ZM15.1666 2.5V5.185L17.2491 6.25H23.1618L21.1925 2.5H15.1666ZM8.26581 2.5L7.60898 3.75H12.3631L14 4.5875V2.5H8.26581ZM14 10V5.9725L12.0983 5H6.99998V4.91125L4.32831 10H14ZM25.13 10L23.8175 7.5H16.9843L15.1666 6.57V10H25.13Z" fill="#F8F8F8"/>
</g>
<defs>
<clipPath id="clip0_1_90">
<rect width="28" height="30" fill="white"/>
</clipPath>
</defs>
</svg>
