<svg width="20" height="20" viewBox="0 0 20 20" fill="none" xmlns="http://www.w3.org/2000/svg">
<path d="M10.725 12.5583L8.60834 10.4667L8.63334 10.4417C10.0451 8.87257 11.0999 7.01604 11.725 4.99999H14.1667V3.33332H8.33334V1.66666H6.66668V3.33332H0.833344V4.99999H10.1417C9.58334 6.59999 8.70001 8.12499 7.50001 9.45832C6.72501 8.59999 6.08334 7.65832 5.57501 6.66666H3.90834C4.51668 8.02499 5.35001 9.30832 6.39168 10.4667L2.15001 14.65L3.33334 15.8333L7.50001 11.6667L10.0917 14.2583L10.725 12.5583ZM15.4167 8.33332H13.75L10 18.3333H11.6667L12.6 15.8333H16.5583L17.5 18.3333H19.1667L15.4167 8.33332ZM13.2333 14.1667L14.5833 10.5583L15.9333 14.1667H13.2333Z" fill="#F8F8F8"/>
</svg>
