<svg width="56" height="56" viewBox="0 0 56 56" fill="none" xmlns="http://www.w3.org/2000/svg">
<g clip-path="url(#clip0_17_28)">
<path d="M19.2337 7.07C19.8339 7.22039 20.3499 7.60307 20.668 8.13386C20.9861 8.66464 21.0804 9.30006 20.93 9.90033L11.5967 47.2337C11.5267 47.5354 11.3973 47.8203 11.2161 48.0715C11.0349 48.3228 10.8055 48.5354 10.5412 48.6971C10.277 48.8587 9.98316 48.9662 9.67694 49.0131C9.37073 49.06 9.05825 49.0454 8.75771 48.9703C8.45718 48.8952 8.17461 48.7609 7.9265 48.5755C7.67839 48.39 7.4697 48.1569 7.3126 47.8899C7.1555 47.6229 7.05314 47.3273 7.01148 47.0204C6.96983 46.7134 6.98972 46.4012 7.06999 46.102L16.4033 8.76867C16.4775 8.47124 16.6096 8.19134 16.7921 7.94498C16.9745 7.69862 17.2037 7.49062 17.4665 7.33287C17.7294 7.17512 18.0207 7.07071 18.3239 7.02561C18.6271 6.9805 18.9363 6.99559 19.2337 7.07ZM39.5967 8.76633L48.93 46.0997C49.0103 46.3989 49.0302 46.7111 48.9885 47.018C48.9469 47.325 48.8445 47.6206 48.6874 47.8876C48.5303 48.1546 48.3216 48.3876 48.0735 48.5731C47.8254 48.7586 47.5428 48.8928 47.2423 48.968C46.9417 49.0431 46.6293 49.0576 46.323 49.0107C46.0168 48.9638 45.723 48.8564 45.4588 48.6948C45.1945 48.5331 44.9651 48.3204 44.7839 48.0692C44.6027 47.8179 44.4733 47.5331 44.4033 47.2313L35.07 9.898C34.9897 9.5988 34.9698 9.28661 35.0115 8.97964C35.0531 8.67267 35.1555 8.37706 35.3126 8.11007C35.4697 7.84308 35.6784 7.61004 35.9265 7.42455C36.1746 7.23906 36.4572 7.10484 36.7577 7.0297C37.0582 6.95457 37.3707 6.94003 37.6769 6.98694C37.9832 7.03385 38.277 7.14126 38.5412 7.30292C38.8055 7.46457 39.0349 7.67722 39.2161 7.92848C39.3973 8.17973 39.5267 8.46456 39.5967 8.76633ZM28 39.6667C28.5715 39.6667 29.1231 39.8766 29.5502 40.2563C29.9773 40.6361 30.2501 41.1594 30.317 41.727L30.3333 42V46.6667C30.3327 47.2614 30.1049 47.8334 29.6967 48.2659C29.2884 48.6983 28.7304 48.9585 28.1367 48.9934C27.543 49.0283 26.9584 48.8351 26.5024 48.4534C26.0463 48.0717 25.7532 47.5302 25.683 46.9397L25.6667 46.6667V42C25.6667 41.3812 25.9125 40.7877 26.3501 40.3501C26.7877 39.9125 27.3812 39.6667 28 39.6667ZM28 23.3333C28.6188 23.3333 29.2123 23.5792 29.6499 24.0168C30.0875 24.4543 30.3333 25.0478 30.3333 25.6667V30.3333C30.3333 30.9522 30.0875 31.5457 29.6499 31.9832C29.2123 32.4208 28.6188 32.6667 28 32.6667C27.3812 32.6667 26.7877 32.4208 26.3501 31.9832C25.9125 31.5457 25.6667 30.9522 25.6667 30.3333V25.6667C25.6667 25.0478 25.9125 24.4543 26.3501 24.0168C26.7877 23.5792 27.3812 23.3333 28 23.3333ZM28 7C28.5715 7.00008 29.1231 7.2099 29.5502 7.58967C29.9773 7.96944 30.2501 8.49275 30.317 9.06033L30.3333 9.33333V14C30.3327 14.5947 30.1049 15.1667 29.6967 15.5992C29.2884 16.0316 28.7304 16.2919 28.1367 16.3267C27.543 16.3616 26.9584 16.1684 26.5024 15.7867C26.0463 15.405 25.7532 14.8636 25.683 14.273L25.6667 14V9.33333C25.6667 8.7145 25.9125 8.121 26.3501 7.68342C26.7877 7.24583 27.3812 7 28 7Z" fill="#F8F8F8"/>
</g>
<defs>
<clipPath id="clip0_17_28">
<rect width="56" height="56" fill="white"/>
</clipPath>
</defs>
</svg>
