<svg width="30" height="30" viewBox="0 0 30 30" fill="none" xmlns="http://www.w3.org/2000/svg">
<g clip-path="url(#clip0_17_36)">
<path d="M10.3038 3.78749C10.6253 3.86805 10.9017 4.07306 11.0721 4.35741C11.2426 4.64176 11.2931 4.98216 11.2125 5.30374L6.2125 25.3037C6.17502 25.4654 6.10571 25.618 6.00864 25.7526C5.91156 25.8872 5.78865 26.0011 5.64709 26.0877C5.50552 26.1743 5.34812 26.2319 5.18408 26.257C5.02004 26.2821 4.85264 26.2743 4.69163 26.2341C4.53063 26.1938 4.37926 26.1219 4.24634 26.0225C4.11343 25.9232 4.00163 25.7983 3.91747 25.6553C3.83331 25.5123 3.77847 25.3539 3.75616 25.1895C3.73384 25.025 3.7445 24.8578 3.7875 24.6975L8.7875 4.69749C8.82726 4.53815 8.89802 4.3882 8.99575 4.25623C9.09348 4.12425 9.21626 4.01282 9.35707 3.92831C9.49788 3.8438 9.65396 3.78787 9.8164 3.7637C9.97883 3.73954 10.1444 3.74762 10.3038 3.78749ZM21.2125 4.69624L26.2125 24.6962C26.2555 24.8565 26.2662 25.0238 26.2438 25.1882C26.2215 25.3527 26.1667 25.511 26.0825 25.6541C25.9984 25.7971 25.8866 25.9219 25.7537 26.0213C25.6207 26.1207 25.4694 26.1926 25.3084 26.2328C25.1474 26.2731 24.98 26.2809 24.8159 26.2557C24.6519 26.2306 24.4945 26.1731 24.3529 26.0865C24.2113 25.9999 24.0884 25.8859 23.9914 25.7513C23.8943 25.6167 23.825 25.4642 23.7875 25.3025L18.7875 5.30249C18.7445 5.1422 18.7338 4.97495 18.7562 4.81051C18.7785 4.64606 18.8333 4.4877 18.9175 4.34467C19.0016 4.20163 19.1134 4.07679 19.2463 3.97742C19.3793 3.87806 19.5306 3.80615 19.6916 3.7659C19.8526 3.72565 20.02 3.71786 20.1841 3.74299C20.3481 3.76812 20.5055 3.82566 20.6471 3.91226C20.7887 3.99886 20.9116 4.11278 21.0086 4.24738C21.1057 4.38199 21.175 4.53457 21.2125 4.69624ZM15 21.25C15.3062 21.25 15.6017 21.3624 15.8305 21.5659C16.0593 21.7693 16.2054 22.0497 16.2413 22.3537L16.25 22.5V25C16.2496 25.3186 16.1277 25.625 15.9089 25.8567C15.6902 26.0884 15.3913 26.2278 15.0733 26.2465C14.7552 26.2651 14.442 26.1616 14.1977 25.9572C13.9534 25.7527 13.7964 25.4626 13.7588 25.1462L13.75 25V22.5C13.75 22.1685 13.8817 21.8505 14.1161 21.6161C14.3505 21.3817 14.6685 21.25 15 21.25ZM15 12.5C15.3315 12.5 15.6495 12.6317 15.8839 12.8661C16.1183 13.1005 16.25 13.4185 16.25 13.75V16.25C16.25 16.5815 16.1183 16.8994 15.8839 17.1339C15.6495 17.3683 15.3315 17.5 15 17.5C14.6685 17.5 14.3505 17.3683 14.1161 17.1339C13.8817 16.8994 13.75 16.5815 13.75 16.25V13.75C13.75 13.4185 13.8817 13.1005 14.1161 12.8661C14.3505 12.6317 14.6685 12.5 15 12.5ZM15 3.74999C15.3062 3.75003 15.6017 3.86243 15.8305 4.06588C16.0593 4.26933 16.2054 4.54967 16.2413 4.85374L16.25 4.99999V7.49999C16.2496 7.81859 16.1277 8.12503 15.9089 8.3567C15.6902 8.58837 15.3913 8.72778 15.0733 8.74645C14.7552 8.76512 14.442 8.66164 14.1977 8.45715C13.9534 8.25267 13.7964 7.96261 13.7588 7.64624L13.75 7.49999V4.99999C13.75 4.66847 13.8817 4.35052 14.1161 4.1161C14.3505 3.88168 14.6685 3.74999 15 3.74999Z" fill="#545454"/>
</g>
<defs>
<clipPath id="clip0_17_36">
<rect width="30" height="30" fill="white"/>
</clipPath>
</defs>
</svg>
