<svg width="20" height="20" viewBox="0 0 20 20" fill="none" xmlns="http://www.w3.org/2000/svg">
<path d="M18.925 5.24167C18.8475 5.16356 18.7554 5.10157 18.6538 5.05926C18.5523 5.01695 18.4433 4.99517 18.3333 4.99517C18.2233 4.99517 18.1144 5.01695 18.0129 5.05926C17.9113 5.10157 17.8191 5.16356 17.7417 5.24167L16.6667 6.325V1.66667C16.6667 1.44566 16.5789 1.23369 16.4226 1.07741C16.2663 0.921133 16.0544 0.833336 15.8333 0.833336C15.6123 0.833336 15.4004 0.921133 15.2441 1.07741C15.0878 1.23369 15 1.44566 15 1.66667V6.325L13.925 5.24167C13.7681 5.08475 13.5553 4.99659 13.3333 4.99659C13.1114 4.99659 12.8986 5.08475 12.7417 5.24167C12.5848 5.39859 12.4966 5.61142 12.4966 5.83334C12.4966 6.05525 12.5848 6.26808 12.7417 6.425L15.2417 8.925C15.3209 9.00087 15.4144 9.06034 15.5167 9.1C15.6164 9.14409 15.7243 9.16686 15.8333 9.16686C15.9424 9.16686 16.0503 9.14409 16.15 9.1C16.2523 9.06034 16.3458 9.00087 16.425 8.925L18.925 6.425C19.0031 6.34753 19.0651 6.25537 19.1074 6.15382C19.1497 6.05227 19.1715 5.94335 19.1715 5.83334C19.1715 5.72333 19.1497 5.6144 19.1074 5.51286C19.0651 5.41131 19.0031 5.31914 18.925 5.24167ZM15.8333 10.8333C15.6123 10.8333 15.4004 10.9211 15.2441 11.0774C15.0878 11.2337 15 11.4457 15 11.6667V11.9833L13.7667 10.75C13.3312 10.318 12.7426 10.0755 12.1292 10.0755C11.5157 10.0755 10.9272 10.318 10.4917 10.75L9.90834 11.3333L7.84167 9.26667C7.4001 8.84634 6.81381 8.61191 6.20417 8.61191C5.59453 8.61191 5.00824 8.84634 4.56667 9.26667L3.33334 10.5V5.83334C3.33334 5.61232 3.42114 5.40036 3.57742 5.24408C3.7337 5.0878 3.94566 5 4.16667 5H10.8333C11.0544 5 11.2663 4.9122 11.4226 4.75592C11.5789 4.59964 11.6667 4.38768 11.6667 4.16667C11.6667 3.94566 11.5789 3.73369 11.4226 3.57741C11.2663 3.42113 11.0544 3.33334 10.8333 3.33334H4.16667C3.50363 3.33334 2.86775 3.59673 2.3989 4.06557C1.93006 4.53441 1.66667 5.17029 1.66667 5.83334V15.8333C1.66667 16.4964 1.93006 17.1323 2.3989 17.6011C2.86775 18.0699 3.50363 18.3333 4.16667 18.3333H14.1667C14.8297 18.3333 15.4656 18.0699 15.9344 17.6011C16.4033 17.1323 16.6667 16.4964 16.6667 15.8333V11.6667C16.6667 11.4457 16.5789 11.2337 16.4226 11.0774C16.2663 10.9211 16.0544 10.8333 15.8333 10.8333ZM4.16667 16.6667C3.94566 16.6667 3.7337 16.5789 3.57742 16.4226C3.42114 16.2663 3.33334 16.0543 3.33334 15.8333V12.8583L5.75001 10.4417C5.87243 10.325 6.03506 10.2599 6.20417 10.2599C6.37328 10.2599 6.53591 10.325 6.65834 10.4417L9.3 13.0833L12.8833 16.6667H4.16667ZM15 15.8333C14.9988 15.9929 14.9462 16.1477 14.85 16.275L11.0917 12.5L11.675 11.9167C11.7347 11.8557 11.8061 11.8073 11.8848 11.7742C11.9635 11.7411 12.048 11.7241 12.1333 11.7241C12.2187 11.7241 12.3032 11.7411 12.3819 11.7742C12.4606 11.8073 12.5319 11.8557 12.5917 11.9167L15 14.3417V15.8333Z" fill="#F8F8F8"/>
</svg>
